<?xml version="1.0" encoding="UTF-8"?>
<!-- Generator: Adobe Illustrator 18.0.0, SVG Export Plug-In . SVG Version: 6.00 Build 0)  -->
<!DOCTYPE svg PUBLIC "-//W3C//DTD SVG 1.1//EN" "http://www.w3.org/Graphics/SVG/1.1/DTD/svg11.dtd">
<svg xmlns="http://www.w3.org/2000/svg" xmlns:xlink="http://www.w3.org/1999/xlink" xmlns:dc="http://purl.org/dc/elements/1.1/" xmlns:cc="http://creativecommons.org/ns#" xmlns:rdf="http://www.w3.org/1999/02/22-rdf-syntax-ns#" version="1.1" id="DESIGNS" x="0px" y="0px" width="32px" height="32px" viewBox="0 0 32 32" style="enable-background:new 0 0 32 32;" xml:space="preserve">
<title property="dc:title">to write</title><desc property="dc:description">An icon for "write" from the Blueprint series on to [icon]. Downloaded from http://www.toicon.com/icons/blueprint_write by 71.172.33.8 on 2014-11-28. Licensed CC-BY, see http://toicon.com/license/ for details.</desc><path style="fill:#0B1719;" d="M30.707,9.293L26,4.586V1c0-0.552-0.448-1-1-1H3C2.448,0,2,0.448,2,1v30c0,0.552,0.448,1,1,1h22  c0.552,0,1-0.448,1-1V15.414l4.707-4.707C31.098,10.317,31.098,9.683,30.707,9.293z M11.921,17.628l4.452,4.452l-5.194,0.742  L11.921,17.628z M17.146,21.439l-4.586-4.586l8.293-8.293l4.586,4.586L17.146,21.439z M26.146,12.439l-4.586-4.586L24,5.414v0  L28.586,10L26.146,12.439z M4,30V2h20v2l-4,4H8v1h11l-2,2H8v1h8l-2,2H8v1h5l-1.764,1.764c-0.069,0.069-0.124,0.15-0.17,0.236H8v1  h2.857l-0.286,2H8v1h2.429l-0.286,2H8v1h2l6.67-0.953c0.214-0.031,0.413-0.13,0.566-0.283L24,16v14H4z"/>
<metadata><work rdf:about=""><format>image/svg+xml</format><type rdf:resource="http://purl.org/dc/dcmitype/StillImage"/><license rdf:resource="http://creativecommons.org/licenses/by/4.0/"/><attributionname>Shannon E Thomas</attributionname><attributionurl>http://www.toicon.com/icons/blueprint_write</attributionurl></work></metadata></svg>
